PathFileType	4	(X/Y/Z)	Patient4_TMGait_0pt4_03_left_23.trc.trc
DataRate	CameraRate	NumFrames	NumMarkers	Units	OrigDataRate	OrigDataStartFrame	OrigNumFrames
74.074074074074	74.074074074074	4	33	mm	74.074074074074	36	       141
Frame#	Time	Sacral			L.Shoulder			Chest			R.Shoulder			Neck			R.ASIS			L.ASIS			R.Thigh.Superior			R.Thigh.Lateral			R.Thigh.Inferior			R.Patella			L.Thigh.Superior			L.Thigh.Lateral			L.Thigh.Inferior			L.Patella			L.Shank.Superior			L.Shank.Lateral			L.Shank.Inferior			R.Shank.Superior			R.Shank.Lateral			R.Shank.Inferior			R.Heel			R.Midfoot.Superior			R.Midfoot.Lateral			R.Toe			L.Heel			L.Midfoot.Lateral			L.Midfoot.Superior			L.Toe			L.Elbow			L.Wrist			R.Elbow			R.Wrist			
		X1	Y1	Z1	X2	Y2	Z2	X3	Y3	Z3	X4	Y4	Z4	X5	Y5	Z5	X6	Y6	Z6	X7	Y7	Z7	X8	Y8	Z8	X9	Y9	Z9	X10	Y10	Z10	X11	Y11	Z11	X12	Y12	Z12	X13	Y13	Z13	X14	Y14	Z14	X15	Y15	Z15	X16	Y16	Z16	X17	Y17	Z17	X18	Y18	Z18	X19	Y19	Z19	X20	Y20	Z20	X21	Y21	Z21	X22	Y22	Z22	X23	Y23	Z23	X24	Y24	Z24	X25	Y25	Z25	X26	Y26	Z26	X27	Y27	Z27	X28	Y28	Z28	X29	Y29	Z29	X30	Y30	Z30	X31	Y31	Z31	X32	Y32	Z32	X33	Y33	Z33	

36	30.602500000000	821.393231374723	1001.592186803100	493.999363205082	958.261788008145	1432.138077389009	294.897857408889	1082.498905142381	1370.137486836038	443.132979369902	1017.257658208183	1440.417595237884	626.184619094128	954.447886125971	1493.857155487125	451.334651798044	1060.221121992590	939.182627107212	587.839389835777	1020.355445599024	964.318246737334	316.046912579620	1068.786620685025	726.889281923308	560.615270517941	974.827050491479	626.305011334185	627.224711229689	1039.099541938084	562.832777088870	547.149502845492	1024.521498270521	466.388185826066	559.152537514399	1090.250157210109	761.812565510924	341.708985816871	1016.012270846008	638.308855299356	278.182007370005	1113.354080891293	569.412321591571	334.560055521857	1121.437649736224	498.416027460471	338.953792153646	1095.583426094628	424.816341461205	329.713620127049	1006.779603532710	309.528060229771	279.952271575731	1067.133105986742	197.144773919026	340.963590981143	967.874413005236	389.463461927729	566.365373847909	869.908683800327	312.273045311379	631.257330549723	880.851797407122	207.894213970988	571.119119694201	708.811320793885	71.437842266126	545.870142263119	884.837253923713	100.291914329804	583.363271162735	790.096788271135	49.748533889493	619.302051545050	996.310719771693	37.660694196666	611.104565489339	947.368727366786	38.651046003471	383.280557076695	1015.914825277685	36.243085975231	298.288021809963	1100.203438021900	98.293538321615	320.403728669959	1226.665464467521	46.793287816056	282.616331558405	915.667231235494	1086.272672091026	167.325888906183	1034.861939594726	851.898734160253	138.806798036771	1090.248417164294	1098.626640518375	741.743026396864	1319.019285664482	1000.549976719703	677.886841709333	
37	30.616000000000	820.508509168179	1001.707937683580	490.203644924117	957.890997714850	1432.705649411548	291.727197633116	1081.388310432273	1370.714660339690	440.578012721313	1015.182794407809	1440.806127892702	623.342430354353	953.323123242997	1494.308560163872	448.204662615459	1059.078973624126	939.746056517536	584.841747779229	1020.213515083968	964.862298115855	312.942152602584	1069.873832732536	727.728731338610	557.932646776678	977.488903057284	626.355691686912	624.927103198622	1042.986459944300	563.239985828079	545.169703308671	1029.330697475477	465.349122677857	558.632610119070	1089.344652097539	761.470385708424	338.315401653847	1013.551945239555	638.005035174721	276.230262726355	1110.581442626483	568.688226638582	332.437475604051	1118.289205041003	497.891964951608	337.674073133645	1092.209367877596	424.224851667661	328.674926408887	1002.999034942909	309.202787839960	279.044022187707	1062.528171567105	196.844489431918	340.822867335790	970.622678349417	389.405876707367	565.921023046076	870.515318460523	314.613612693399	630.272054922405	879.915112796843	209.581031651818	571.239332055439	705.037922732686	76.685533202574	546.141778030699	881.722949439868	100.886671976359	583.746307859066	785.699201228618	52.457574726638	619.374266536447	991.155564686907	37.562434868599	611.041659578679	941.947093977666	38.611569983749	383.271068560989	1010.478913615386	36.159974411857	298.256409738609	1094.748377117180	98.224409576917	320.444674711730	1221.235990277462	46.850650600264	282.592832933148	918.344059423855	1086.673988466979	163.192314272094	1042.665303607115	854.649840650586	136.665426782329	1083.484461713689	1098.243122269613	740.097308081119	1308.048796193257	987.313548966212	680.575390361692	
38	30.629500000000	819.557530528035	1001.782508690708	486.367650745469	957.610515261201	1433.268583605080	288.521910118786	1080.282844322850	1371.256051176753	438.036969301377	1013.048776410805	1441.122033005556	620.501243765307	952.223702756866	1494.736819115816	445.056676400897	1057.849101251852	940.280601638657	581.801427639800	1020.019372673939	965.382644777768	309.803241270248	1071.435229918798	728.688103966673	555.269211680616	980.916043156779	626.400672399703	622.686787348503	1047.819893660867	563.755471302094	543.272832943432	1035.214613936862	464.424816853027	558.242368367299	1088.258200479620	761.007864927874	335.055766499555	1011.027357220446	637.719438765527	274.217371541227	1107.579926253620	567.950044510980	330.458506548852	1114.875304210752	497.343583186582	336.439709381652	1088.600949591633	423.618380877633	327.642036900426	999.063682416828	308.813971015423	278.132055901638	1057.794619836666	196.513870510011	340.683241366986	974.386944338840	389.448515443052	565.648960669015	872.017123600005	317.320793922184	629.375236445924	879.753125191810	211.617177320315	571.529904242658	701.841148203751	82.907711639305	546.503245768848	879.045045080414	101.512984630334	584.164425237184	781.615752170484	55.752822040540	619.502391592327	985.988237724148	37.449958090803	610.971467145368	936.450679783612	38.560570486328	383.290770202935	1004.966226966536	36.061674447132	298.249978252297	1089.231744602769	98.119428042956	320.508572868053	1215.736500588943	46.847070783842	282.591526736310	921.180910711131	1087.091520514297	159.045856230064	1050.649597197043	857.586685985730	134.610786199347	1076.454397756866	1097.849215899317	738.447087836378	1295.979010530828	974.066233494161	683.585713606596	
39	30.643000000000	818.531114033414	1001.809293030278	482.507368780401	957.412831213157	1433.806411625166	285.302495753135	1079.183037571895	1371.738759344083	435.521275680441	1010.868985877993	1441.356366272876	617.670758153878	951.147962052517	1495.126975873762	441.900050771342	1056.518875576521	940.770100535550	578.739695311789	1019.752466488354	965.864842105949	306.641679893581	1073.485812244120	729.799041148685	552.650940346403	985.155030709665	626.477271823221	620.542590355068	1053.642663911397	564.426356248068	541.500694277278	1042.225920818988	463.694256965620	557.993368138780	1086.998832969118	760.471789850263	332.002513375642	1008.531868930310	637.485792033256	272.105155643745	1104.412131476560	567.224908533488	328.614824555457	1111.242127709419	496.784498515607	335.221429788660	1084.808905874317	423.009522916931	326.580816212693	995.024619550820	308.376207984257	277.175068614142	1052.975111208805	196.166437654350	340.512824362593	979.256882013954	389.640701092514	565.550371365008	874.532092884349	320.451491004423	628.594608778587	880.470346749215	214.073394899392	572.005960232918	699.374405724273	90.276539829727	546.972575945332	876.862060874235	102.233710815416	584.619160134160	777.939358191331	59.785968994022	619.705364728768	980.803576264984	37.279332776235	610.906055114188	930.915915041727	38.503704813322	383.313921206013	999.416784871958	35.956368283548	298.245748592768	1083.686947006310	97.998518873028	320.571225274282	1210.205762409857	46.802470494119	282.600656553376	924.186000189375	1087.520529680851	154.884187643536	1058.832685569086	860.725880113994	132.650903588702	1069.137333010555	1097.424510631815	736.771339967924	1282.785201200619	960.927136667212	686.889270451409	
